<svg width="22" height="14" viewBox="0 0 22 14" fill="none" xmlns="http://www.w3.org/2000/svg">
<path d="M0.75 6.57363V12.3973L5.50868 12.3973C16.2341 12.3972 20.75 6.57362 20.75 6.57362C20.75 6.57362 16.2341 0.750003 5.50868 0.750009L0.75 0.750012L0.75 6.57363Z" fill="#00A3E3" stroke="#111326" stroke-width="1.5" stroke-miterlimit="10"/>
<path d="M6.0512 8.56826L6.35239 8.27415L6.73716 8.62802C7.20839 9.05435 7.59906 9.24555 8.18145 9.33583C9.01354 9.45686 9.8424 9.18094 10.4528 8.58488L10.7701 8.27509L11.0642 8.57628L11.3583 8.87746L11.0651 9.16372C10.3985 9.81468 9.48529 10.1729 8.5289 10.1576C7.57252 10.1423 6.8654 9.85998 6.13881 9.2123L5.75002 8.86236L6.0512 8.56826Z" fill="white"/>
<path d="M6.0512 4.58116L6.35239 4.87526L6.73716 4.5214C7.20839 4.09506 7.59906 3.90387 8.18145 3.81359C9.01354 3.69256 9.8424 3.96848 10.4528 4.56453L10.7701 4.87432L11.0642 4.57314L11.3583 4.27195L11.0651 3.98569C10.3985 3.33474 9.48529 2.97647 8.5289 2.99181C7.57252 3.00715 6.8654 3.28943 6.13881 3.93711L5.75002 4.28705L6.0512 4.58116Z" fill="white"/>
<circle cx="8.5" cy="6.57324" r="2" transform="rotate(90 8.5 6.57324)" fill="white"/>
</svg>
