<svg width="22" height="14" viewBox="0 0 22 14" fill="none" xmlns="http://www.w3.org/2000/svg">
<path d="M0.75 6.57363V12.3973L5.50868 12.3973C16.2341 12.3972 20.75 6.57362 20.75 6.57362C20.75 6.57362 16.2341 0.750003 5.50868 0.750009L0.75 0.750012L0.75 6.57363Z" fill="#F75349" stroke="#111326" stroke-width="1.5" stroke-miterlimit="10"/>
<circle cx="9.25" cy="6.5498" r="2.5" transform="rotate(90 9.25 6.5498)" stroke="#111326" stroke-width="1.5"/>
<path d="M4.27523 8.89069C3.92882 9.1178 3.83212 9.58272 4.05922 9.92912C4.28633 10.2755 4.75125 10.3722 5.09766 10.1451L4.68644 9.51791L4.27523 8.89069ZM7.19531 7.87305L6.7841 7.24583L4.27523 8.89069L4.68644 9.51791L5.09766 10.1451L7.60653 8.50026L7.19531 7.87305Z" fill="#111326"/>
</svg>
