<svg width="791" height="117" viewBox="0 0 791 117" fill="none" xmlns="http://www.w3.org/2000/svg">
<path fill-rule="evenodd" clip-rule="evenodd" d="M63.6637 0.505017C63.0259 0.151654 56.0707 -0.132762 51.9079 0.0654662C35.0155 0.858377 21.2947 7.02068 12.1848 17.8973C5.8329 25.4645 2.05795 34.626 0.368709 46.468C-0.105314 49.7 -0.131169 63.2829 0.342854 63.7569C0.515226 63.9293 1.86834 64.1706 3.3766 64.2826C6.99641 64.5843 14.3136 64.3688 18.485 63.8431C27.5345 62.6623 36.653 59.2408 43.4962 54.4057C46.866 52.0529 52.2182 46.6749 54.5969 43.305C59.6561 36.1774 62.9311 26.8004 63.9567 16.7166C64.3963 12.2435 64.198 0.841144 63.6809 0.513637L63.6637 0.505017ZM60.199 10.7008C59.432 27.5157 55.0365 38.6423 45.6767 47.5884H45.6681C37.9372 54.9487 27.2501 59.1804 13.9171 60.1112C3.95405 60.8266 3.842 60.7663 4.08332 52.682C4.38497 43.0464 6.12593 35.893 9.96983 28.3862C14.1412 20.2416 20.3208 14.1138 28.586 9.91652C36.179 6.08125 45.0475 4.09036 54.6228 4.09036C59.9836 4.09036 60.5093 4.72813 60.199 10.6922V10.7008Z" fill="white"/>
<path fill-rule="evenodd" clip-rule="evenodd" d="M30.5516 45.2963V49.7693L33.1372 49.597C37.9463 49.2695 41.3852 47.744 44.7464 44.4344C48.1077 41.1249 49.9951 36.6777 49.9951 32.0926V30.0845H45.772V32.2219C45.772 36.3243 43.8932 40.1165 40.5922 42.5728C38.2738 44.2793 36.2485 44.9774 33.1199 45.167L30.543 45.2963H30.5516Z" fill="white"/>
<path fill-rule="evenodd" clip-rule="evenodd" d="M30.594 41.8659C27.4138 41.3918 24.742 39.4096 23.2769 36.4534C22.4495 34.7986 22.3633 34.3849 22.3633 32.1182C22.3633 29.9894 22.4753 29.412 23.1045 28.0589C24.0439 26.0507 25.9486 24.1374 27.9654 23.198C29.3185 22.5602 29.9046 22.4568 32.1626 22.4568C34.4207 22.4568 34.9809 22.543 36.334 23.2238C38.0491 24.0512 40.0831 26.068 40.9364 27.7228C44.5303 34.7641 38.4542 43.0208 30.5854 41.8573L30.594 41.8659Z" fill="white"/>
<path fill-rule="evenodd" clip-rule="evenodd" d="M16.4946 24.7234C15.2018 27.4296 14.8743 28.6362 14.633 31.9285L14.4434 34.3073H18.7182V32.6783C18.7182 25.0423 24.5874 19.0954 32.0856 19.0954H33.93V14.8723H32.5079C29.8017 14.8982 26.7852 15.6135 24.3547 16.8201C21.0452 18.4663 18.0287 21.5086 16.5032 24.732L16.4946 24.7234Z" fill="white"/>
<path fill-rule="evenodd" clip-rule="evenodd" d="M96.8365 64.0068C91.1999 62.9984 85.141 59.844 80.6507 55.664L79.0391 54.1299L80.6852 52.4579L82.3314 50.7859L84.1758 52.4837C89.5538 57.4222 95.3886 59.6889 102.792 59.6889C108.428 59.6889 112.393 58.2927 115.487 55.2245C118.193 52.5441 119.503 48.5278 118.866 44.7356C118.34 41.4692 116.745 39.1852 113.591 37.1771C111.023 35.5654 108.394 34.6432 100.723 32.7472C96.7072 31.7388 92.5186 30.5666 91.4671 30.1271C86.3304 28.0069 83.4001 24.7146 82.3917 19.9485C81.866 17.5008 81.866 15.9323 82.3917 13.7259C83.538 8.89949 86.9682 4.90908 92.1566 2.37521C95.5092 0.763531 97.3794 0.280892 101.387 0.0826647C107.274 -0.201749 113.332 1.25479 117.995 4.07307L120.176 5.39172L118.616 7.17577C117.78 8.12381 117.03 8.93396 116.97 8.93396C116.909 8.93396 116.271 8.53751 115.539 8.09796C112.272 6.00364 107.386 4.74532 102.697 4.74532C97.2588 4.74532 93.7338 6.08983 90.4501 9.34766C87.83 11.9419 87.1578 13.588 87.3215 17.0527C87.5198 21.1551 89.278 23.7235 93.0443 25.4472C94.0527 25.8954 97.9569 27.0072 101.723 27.9294C109.704 29.8513 111.523 30.4115 114.194 31.756C119.684 34.4881 122.701 37.789 123.795 42.2448C124.278 44.2013 124.218 48.7433 123.683 50.8376C121.951 57.5084 116.289 62.3865 108.42 64.0068C105.8 64.5325 99.7409 64.5584 96.8365 64.0327V64.0154V64.0068Z" fill="white"/>
<path fill-rule="evenodd" clip-rule="evenodd" d="M184.616 0.962158C184.616 0.962158 178.738 11.2959 171.611 23.5774L158.683 45.934V63.8779H153.512V54.6043V45.1928L166.241 23.0947L178.937 0.970779H184.616V0.962158Z" fill="white"/>
<path fill-rule="evenodd" clip-rule="evenodd" d="M149.385 38.7285L127.795 0.970459H133.363L152.022 34.0486L149.385 38.7285Z" fill="white"/>
<path d="M192.09 0.479079L235.183 51.3805V0.961719H240.354V64.3687L197.261 13.3035V63.8775H192.09V0.470459V0.479079Z" fill="white"/>
<path d="M257.859 0.203613L282.568 40.3232L307.278 0.203613L313.397 63.8864H308.26L303.529 14.2261L282.568 48.7091L261.616 14.2261L256.885 63.8864H251.748L257.867 0.203613H257.859Z" fill="white"/>
<path fill-rule="evenodd" clip-rule="evenodd" d="M370.666 63.8863C370.666 63.8863 365.495 51.8462 359.471 37.4272C353.446 23.0428 348.267 11.3043 348.267 11.3043C348.267 11.3043 343.061 23.1807 337.011 37.6255L326.005 63.8863H320.67L348.267 0.013916C348.267 0.013916 354.688 14.3725 362.229 31.9372L375.941 63.8863H370.666Z" fill="white"/>
<path fill-rule="evenodd" clip-rule="evenodd" d="M382.48 63.887H388.401L407.285 36.1523L426.099 63.887H432.158L410.293 31.6275L430.874 0.971191H425.013L382.48 63.887Z" fill="white"/>
<path fill-rule="evenodd" clip-rule="evenodd" d="M400.942 26.8097C401.269 26.2926 403.975 22.3195 403.975 22.3195L389.496 0.971191H383.42C383.42 0.971191 400.554 26.2323 400.95 26.8097H400.942Z" fill="white"/>
<path d="M157.41 92.1053H154V115.713H157.41V92.1053Z" fill="white"/>
<path d="M182.718 107.753L167.509 91.5881L167.526 93.0083V115.722H170.936V100.144L186.128 116.116V91.9125H182.718V107.753Z" fill="white"/>
<path d="M375.654 107.753L360.445 91.5881L360.462 93.0083V115.722H363.872V100.144L379.064 116.116L379.055 114.74V91.9125H375.654V107.753Z" fill="white"/>
<path d="M194.894 95.4015H201.75V115.722H205.151V95.4015H211.971V92.1053H194.894V95.4015Z" fill="white"/>
<path d="M220.72 115.722H235.622V112.425H224.13V105.86H234.185V102.572H224.13V95.4015H235.622V92.1053H220.72V115.722Z" fill="white"/>
<path d="M248.255 92.2281H244.853V115.722H259.747V112.425H248.255V92.2281Z" fill="white"/>
<path d="M271.897 92.2281H268.496V115.722H283.39V112.425H271.897V92.2281Z" fill="white"/>
<path d="M295.548 92.1053H292.138V115.713H295.548V92.1053Z" fill="white"/>
<path d="M315.895 106.605H323.153C322.978 107.359 322.741 108.06 322.426 108.682C321.996 109.55 321.444 110.295 320.804 110.909C320.164 111.514 319.419 111.978 318.586 112.303C316.833 112.978 314.676 112.96 312.862 112.171C311.915 111.759 311.065 111.163 310.337 110.4C309.609 109.638 309.022 108.7 308.601 107.613C308.172 106.517 307.953 105.272 307.953 103.905C307.953 102.537 308.172 101.292 308.601 100.197C309.031 99.1096 309.618 98.1628 310.337 97.4089C311.065 96.6462 311.915 96.0589 312.87 95.6381C313.826 95.2261 314.843 95.0157 315.895 95.0157C317.201 95.0157 318.419 95.2787 319.506 95.7959C320.576 96.3044 321.426 96.9969 322.031 97.856L322.373 98.3381L325.634 97.3037L325.091 96.4271C324.196 94.9894 322.934 93.8411 321.33 92.9907C319.743 92.1492 317.902 91.7196 315.868 91.7196C314.352 91.7196 312.888 92.0177 311.512 92.5963C310.135 93.1836 308.917 94.0164 307.882 95.0859C306.848 96.1466 306.015 97.444 305.41 98.9342C304.797 100.424 304.49 102.099 304.49 103.896C304.49 105.693 304.797 107.359 305.41 108.858C306.024 110.348 306.857 111.645 307.882 112.706C308.917 113.775 310.135 114.608 311.512 115.196C312.888 115.783 314.352 116.081 315.868 116.081C317.385 116.081 318.849 115.8 320.164 115.248C321.488 114.687 322.654 113.889 323.627 112.855C324.6 111.829 325.389 110.593 325.967 109.164C326.546 107.744 326.87 106.158 326.931 104.448L327.01 103.3H315.904V106.596L315.895 106.605Z" fill="white"/>
<path d="M335.812 115.722H350.714V112.425H339.222V105.86H349.277V102.572H339.222V95.4015H350.714V92.1053H335.812V115.722Z" fill="white"/>
<path d="M393.336 97.4177C394.063 96.655 394.914 96.0677 395.869 95.6469C396.825 95.2349 397.841 95.0245 398.893 95.0245C400.252 95.0245 401.514 95.3138 402.645 95.8748C403.759 96.4271 404.627 97.1985 405.231 98.1716L405.556 98.6888L408.869 97.7157L408.361 96.8303C407.449 95.2612 406.152 93.9989 404.504 93.0872C402.865 92.1842 400.971 91.7284 398.876 91.7284C397.359 91.7284 395.895 92.0264 394.519 92.605C393.143 93.1924 391.924 94.0251 390.89 95.0946C389.855 96.1553 389.023 97.4527 388.418 98.943C387.804 100.433 387.497 102.108 387.497 103.905C387.497 105.702 387.804 107.367 388.418 108.866C389.031 110.357 389.864 111.654 390.89 112.715C391.924 113.784 393.143 114.617 394.519 115.204C395.895 115.792 397.359 116.09 398.876 116.09C400.91 116.09 402.777 115.643 404.434 114.766C406.108 113.881 407.432 112.61 408.361 110.988L408.869 110.111L405.573 109.138L405.249 109.647C404.609 110.646 403.715 111.426 402.602 111.97C400.568 112.96 398.034 113.118 395.878 112.18C394.922 111.768 394.072 111.172 393.344 110.409C392.617 109.647 392.029 108.709 391.609 107.622C391.179 106.526 390.96 105.281 390.96 103.913C390.96 102.546 391.179 101.301 391.609 100.205C392.038 99.1183 392.626 98.1716 393.344 97.4177H393.336Z" fill="white"/>
<path d="M432.161 95.4015V92.1053H417.259V115.722H432.161V112.425H420.669V105.86H430.732V102.572H420.669V95.4015H432.161Z" fill="white"/>
<path d="M490.479 63.5703H479.162V11.042H459.452V0.951237H510.094V11.042H490.479V63.5703ZM588.921 63.5703H577.605V36.9761H545.069V63.5703H533.752V0.951237H545.069V26.8853H577.605V0.951237H588.921V63.5703ZM628.563 27.1683H656.76V36.9761H628.563V53.4796H663.55V63.5703H617.246V0.951237H663.55V11.042H628.563V27.1683ZM689.32 63.5703V0.951237H700.637V63.5703H689.32ZM777.169 63.5703L772.171 51.7821H740.107L735.109 63.5703H723.32L750.858 0.951237H761.703L789.335 63.5703H777.169ZM756.233 13.7768H756.045L744.256 41.88H768.021L756.233 13.7768Z" fill="#0094FF"/>
</svg>
